#!OML:ASF F:\VICON\USERDATA\INSTALL\rory3\rory3.ASF
:FULLY-SPECIFIED
:DEGREES
83
root 1.4013855379139095 17.85343749060743 48.69845112813121 -3.4815909444522015 -0.6631891734174141 -6.097010567452308
lfemur -14.306710983844741 -1.2676642908739595 -13.205684753588603
ltibia 60.71329282948056
lfoot -9.831779666198875 1.6184976673073734
ltoes -7.39668839701552
rfemur -9.709966561467766 3.927912182415972 29.62395675881166
rtibia 29.891611077478508
rfoot -15.914516804574514 -9.876093909902242
rtoes -0.8830761467632642
lowerback 1.0 -0.3157492044124093 3.578655596512713
upperback 0.19757736150052174 0.8282326058973735 2.6397281102830643
thorax -5.566299693401206 0.42579162542943405 0.8455755784704883
lowerneck -16.353499520174925 -3.046281759462651 -1.1223879368611813
upperneck 22.453639637120574 -3.8489083853246133 -0.3317768877201364
head 9.899278268451086 -1.9196266860405802 -0.3995504136319502
lclavicle -1.830593622319612e-15 -1.356790712881243e-16
lhumerus -32.518741476223816 2.9454419674594874 82.76754321705815
lradius 20.675207495190072
lwrist 7.220154227365818
lhand -27.87720736721527 23.206941653000218
lfingers nan
lthumb -1.205875301358897 53.33841772708372
rclavicle -1.8987421632333083e-15 -1.9104484443878294e-16
rhumerus -32.194803702406766 -28.17874816971427 -71.93236261661954
rradius 29.963605931381174
rwrist 1.5977641506394704
rhand -18.068899458476963 1.0
rfingers nan
rthumb 8.383011972529449 -8.003321176009546
84
root 1.3803268835863554 17.84874110351018 48.95419781459518 -3.6244488393141165 -0.29795503197641593 -5.276241878382413
lfemur -16.534017824280998 -1.5015042076876564 -14.318726187930167
ltibia 59.11261146209779
lfoot -10.525742162075344 1.8488058569767225
ltoes -7.899786655561087
rfemur -7.865547581008997 3.435107264399029 28.690354347731997
rtibia 30.238700967832095
rfoot -14.128045201121314 -9.206648796220568
rtoes -1.0692117819960454
lowerback 1.0 -0.23570271308907909 3.109967977868556
upperback 0.19939408906698836 0.8438624730156148 2.3669065691630733
thorax -5.5063462003268 0.44536745564979596 0.6227780622126484
lowerneck -16.2433339981848 -3.1194924828338477 -1.1085499844764923
upperneck 22.451244490201553 -3.983824276316385 -0.2809953523155325
head 9.908600053644141 -1.9658947582699797 -0.40656904204796357
lclavicle -1.8263269435522036e-15 -1.3463548858203177e-16
lhumerus -33.32190666176741 3.571172957076448 82.72654858769633
lradius 21.323962667125098
lwrist 7.465851947713
lhand -27.85647456943184 23.152181114934212
lfingers nan
lthumb -1.196737396327461 53.22863492110381
rclavicle -1.8877946734215952e-15 -1.8820096232591642e-16
rhumerus -31.411895706833146 -27.639077604461747 -71.70123811807133
rradius 29.978135924843865
rwrist 1.6319561065530355
rhand -18.061107087767244 1.0
rfingers nan
rthumb 8.380144555824439 -7.927332081771506
85
root 1.4067706382500291 17.84600299182187 49.668310191290566 -3.8436900338096622 -0.005689198890006297 -3.904598397299336
lfemur -17.516272061949877 -1.875537599765785 -16.06224716200262
ltibia 55.917618792587504
lfoot -10.499247395762488 2.5451930294347593
ltoes -9.687104538522062
rfemur -6.641020429014495 2.814444338891712 27.194981201217406
rtibia 30.879701254611728
rfoot -11.845926610590102 -8.568494346372493
rtoes -0.6833683832778106
lowerback 1.0 -0.1637779268757409 2.2753963012034655
upperback 0.23020905896723648 0.8215213762621035 2.060706533592735
thorax -5.352236887071985 0.44644736145864977 0.5066127278266684
lowerneck -16.097811301401716 -3.1809347389536202 -1.1496376551814875
upperneck 22.585635746496372 -4.102078275593769 -0.22177493601157666
head 9.966954877763598 -2.005595279544538 -0.4058213620435409
lclavicle -1.8250307658152513e-15 -1.3479272704389405e-16
lhumerus -33.8638481007873 4.066547289204829 82.66833151540033
lradius 22.070858848210136
lwrist 7.600936288784995
lhand -27.822721091843285 23.134800680499783
lfingers nan
lthumb -1.2037515622708457 53.13884222329241
rclavicle -1.882102658449066e-15 -1.8633205901301967e-16
rhumerus -30.60460863250459 -26.929220607896823 -71.65334694031526
rradius 30.04329254542384
rwrist 2.0976932625973266
rhand -18.040973087148483 1.0
rfingers nan
rthumb 8.394687418314831 -7.806024008267536
86
root 1.425785747184107 17.84838089038135 49.85521116848304 -3.8555836018305527 0.3141200125472732 -3.866619599898467
lfemur -18.133053058460483 -2.312429479412816 -16.684329270845357
ltibia 51.7701807211589
lfoot -10.210681240662304 3.1122156750758694
ltoes -10.59205713254317
rfemur -6.1065399099789985 2.5281119588207597 26.954581343485792
rtibia 32.07044535549642
rfoot -9.28369407525851 -8.089551096687714
rtoes 0.302483815023157
lowerback 1.0 -0.0724947184356246 2.3975156734829914
upperback 0.17069356580598452 0.9580708809321009 1.914440197402456
thorax -5.2745456587220225 0.5082858296636088 0.1995913005519001
lowerneck -15.94684940063865 -3.231407635899959 -1.2205183859101472
upperneck 22.790519004297913 -4.204433970035906 -0.15261712919634124
head 10.042559203470892 -2.039143018371536 -0.39626628060313457
lclavicle -1.823725915607224e-15 -1.3444400774085143e-16
lhumerus -34.09191004091569 4.463159349344418 82.61999892182784
lradius 22.821012335318684
lwrist 7.512466349938398
lhand -27.795505892707546 23.109307748044692
lfingers nan
lthumb -1.2194082849627708 53.068810017176226
rclavicle -1.8781325514470047e-15 -1.8464789568365458e-16
rhumerus -29.775934394740155 -26.074674754433033 -71.67507223021013
rradius 30.166429619593146
rwrist 2.9103978966573094
rhand -18.01871368931572 1.0
rfingers nan
rthumb 8.400149615191513 -7.703244277444424
87
root 1.4151911612860906 17.854505175107636 49.763404707829366 -3.7210368813458254 0.5247918525867374 -4.356566320724834
lfemur -18.47397576459371 -2.6958913753346643 -16.803245785941236
ltibia 47.02218012324264
lfoot -9.939411699756924 3.3192397388212505
ltoes -11.399867726373166
rfemur -6.331427164932474 2.5731074273549095 27.173124328126683
rtibia 33.983029786570256
rfoot -6.872736863362391 -7.971778939604326
rtoes 1.8052903645044907
lowerback 1.0 -0.012603149153617321 2.815345690055106
upperback 0.0753796872389049 1.1094322782335744 1.8545877642866673
thorax -5.263169882446929 0.5780721555772684 -0.10842169662330536
lowerneck -15.823870138874925 -3.2683987329306317 -1.281945398657472
upperneck 23.009500190299303 -4.282822715994816 -0.07909505413667674
head 10.115583049553745 -2.0639786780512157 -0.378927611769566
lclavicle -1.820491463868223e-15 -1.3308597487380823e-16
lhumerus -34.03436866013505 4.693072854080493 82.58568497219805
lradius 23.526165794208765
lwrist 7.338467065576669
lhand -27.770750613937814 23.09492239516647
lfingers nan
lthumb -1.2142113732811546 53.0528142768291
rclavicle -1.8718381092787413e-15 -1.8297904141932864e-16
rhumerus -29.03216534751904 -25.200350088961464 -71.68928972850298
rradius 30.360860728432687
rwrist 3.647031842702661
rhand -18.003503842850204 1.0
rfingers nan
rthumb 8.40694552279254 -7.633044048952792
